<svg width="854" height="1211" viewBox="0 0 854 1211" fill="none" xmlns="http://www.w3.org/2000/svg">
<path d="M808.538 40.1929C691.525 15.1092 591.033 212.023 559.987 277.267C647.661 209.239 736.098 143.758 853.531 143.706C854.424 145.597 609.629 267.128 553.236 397.589C514.652 453.877 464.353 504.674 423.038 559.044C418.336 565.243 395.8 579.742 391.361 586.045C391.361 586.045 388.131 618.273 395.643 610.63C433.912 594.319 472.154 578.008 511.054 561.434C511.054 605.14 512.656 646.089 509.872 686.774C509.215 696.361 495.452 708.469 484.919 713.355C448.673 730.165 435.277 756.115 436.302 796.249C438.928 897.95 437.51 999.729 438.587 1101.48C438.823 1124.73 429.814 1140.93 409.327 1150.13C365.542 1169.75 321.39 1188.55 277.368 1207.65C274.847 1208.75 272.089 1209.3 267.913 1210.59C267.545 1202.97 266.993 1196.67 266.967 1190.39C266.599 1051.55 266.284 912.737 265.917 773.897C265.864 752.202 265.365 730.506 265.628 708.811C265.943 681.153 281.676 661.007 304.711 651.237C327.404 641.597 330.845 627.387 327.273 603.591C302.373 609.895 277.762 615.962 253.257 622.449C238.81 626.284 222.079 627.492 210.759 635.845C193.817 648.347 179.319 664.974 166.317 681.81C139.999 715.85 116.544 752.202 89.4378 785.559C78.0648 799.559 61.7276 812.14 45.0489 818.26C34.4638 822.147 20.8057 823.618 7.64662 809.014C-5.80138 794.069 1.00143 771.638 8.93365 759.267C42.291 707.156 79.6932 657.619 115.572 607.11C119.617 601.411 123.347 595.448 128.836 587.201C117.069 587.201 108.191 587.201 97.9741 587.201C98.2368 527.788 125.08 486.971 172.805 455.952C229.933 418.812 292.996 405.338 359.343 401.503C390.652 399.691 414.659 377.365 424.377 344.034C462.489 213.231 535.954 108.247 652.678 35.649C669.12 25.4054 686.902 17.1842 704.526 8.98934C744.082 -9.37033 778.753 0.0852914 808.538 40.1929Z" fill="black"/>
<path d="M165.076 784.456C163.474 733.054 187.113 733.711 229.243 709.389C242.718 701.614 248.181 708.102 249.836 719.869C253.46 745.819 255.351 806.493 252.594 825.719C253.907 850.908 192.892 878.54 182.543 880.667C168.754 887.575 165.076 797.72 165.076 784.456Z" fill="black"/>
</svg>
